HIERARCHY
ROOT joint_Root
{
	OFFSET 0.0 0.0 0.0
	CHANNELS 6 Xposition Yposition Zposition Zrotation Xrotation Yrotation 
	JOINT Hips
	{
		OFFSET 4.5925 91.4895 -427.239
		CHANNELS 6 Xposition Yposition Zposition Zrotation Xrotation Yrotation 
		JOINT Spine
		{
			OFFSET 15.7357 0.0 0.0
			CHANNELS 6 Xposition Yposition Zposition Zrotation Xrotation Yrotation 
			JOINT Chest
			{
				OFFSET 8.98455 -0.406207 0.0
				CHANNELS 6 Xposition Yposition Zposition Zrotation Xrotation Yrotation 
				JOINT Neck
				{
					OFFSET 16.3773 0.0 0.0
					CHANNELS 6 Xposition Yposition Zposition Zrotation Xrotation Yrotation 
					JOINT Head
					{
						OFFSET 6.45672 0.0 0.0
						CHANNELS 6 Xposition Yposition Zposition Zrotation Xrotation Yrotation 
						End Site
						{
							OFFSET 0.0 0.0 0.0
						}
					}
				}
				JOINT Shoulder_L
				{
					OFFSET 12.9942 -0.242716 4.98039
					CHANNELS 6 Xposition Yposition Zposition Zrotation Xrotation Yrotation 
					JOINT UpperArm_L
					{
						OFFSET 5.34809 0.0 0.0
						CHANNELS 6 Xposition Yposition Zposition Zrotation Xrotation Yrotation 
						JOINT LowerArm_L
						{
							OFFSET 24.3286 1.87007e-05 0.0
							CHANNELS 6 Xposition Yposition Zposition Zrotation Xrotation Yrotation 
							JOINT Hand_L
							{
								OFFSET 22.2916 0.0 0.0
								CHANNELS 6 Xposition Yposition Zposition Zrotation Xrotation Yrotation 
								End Site
								{
									OFFSET 0.0 0.0 0.0
								}
							}
						}
					}
				}
				JOINT Shoulder_R
				{
					OFFSET 12.9945 -0.242716 -4.98039
					CHANNELS 6 Xposition Yposition Zposition Zrotation Xrotation Yrotation 
					JOINT UpperArm_R
					{
						OFFSET -5.34813 0.0 0.0
						CHANNELS 6 Xposition Yposition Zposition Zrotation Xrotation Yrotation 
						JOINT LowerArm_R
						{
							OFFSET -24.3289 0.000322201 0.0
							CHANNELS 6 Xposition Yposition Zposition Zrotation Xrotation Yrotation 
							JOINT Hand_R
							{
								OFFSET -22.2915 -0.000108084 0.0
								CHANNELS 6 Xposition Yposition Zposition Zrotation Xrotation Yrotation 
								End Site
								{
									OFFSET 0.0 0.0 0.0
								}
							}
						}
					}
				}
			}
		}
		JOINT UpperLeg_L
		{
			OFFSET -2.19248 -6.46944 0.0
			CHANNELS 6 Xposition Yposition Zposition Zrotation Xrotation Yrotation 
			JOINT LowerLeg_L
			{
				OFFSET 39.0811 0.0 -1.23785e-05
				CHANNELS 6 Xposition Yposition Zposition Zrotation Xrotation Yrotation 
				JOINT Foot_L
				{
					OFFSET 40.9854 0.0 -1.26872e-05
					CHANNELS 6 Xposition Yposition Zposition Zrotation Xrotation Yrotation 
					JOINT Toes_L
					{
						OFFSET 11.7543 0.0 0.0
						CHANNELS 6 Xposition Yposition Zposition Zrotation Xrotation Yrotation 
						End Site
						{
							OFFSET 0.0 0.0 0.0
						}
					}
				}
			}
		}
		JOINT UpperLeg_R
		{
			OFFSET -2.19251 6.46944 0.0
			CHANNELS 6 Xposition Yposition Zposition Zrotation Xrotation Yrotation 
			JOINT LowerLeg_R
			{
				OFFSET -39.0811 -0.00228153 -0.0401928
				CHANNELS 6 Xposition Yposition Zposition Zrotation Xrotation Yrotation 
				JOINT Foot_R
				{
					OFFSET -40.9854 0.0 0.0
					CHANNELS 6 Xposition Yposition Zposition Zrotation Xrotation Yrotation 
					JOINT Toes_R
					{
						OFFSET -11.7543 0.0 0.0
						CHANNELS 6 Xposition Yposition Zposition Zrotation Xrotation Yrotation 
						End Site
						{
							OFFSET 0.0 0.0 0.0
						}
					}
				}
			}
		}
	}
}
MOTION
Frames:	8
Frame Time:	0.0333333
0.000000 0.000000 0.000000 0.000000 0.000000 -0.000000 -3.865150 90.183600 3.495040 90.557600 -1.322260 11.296400 15.735700 0.000005 -0.000001 77.183100 83.049100 -75.068100 8.984550 -0.406207 -0.000000 5.857040 -3.111210 4.385190 16.377300 -0.000001 -0.000001 26.004800 -12.389200 6.094480 6.456720 -0.000001 -0.000000 13.657200 -15.719500 11.688500 12.994200 -0.242716 4.980390 -88.479500 -3.626970 -67.237200 5.348090 -0.000007 -0.000001 -62.457800 -53.641600 -84.456000 24.328600 0.000019 0.000005 15.823300 8.230930 -63.199600 22.291600 -0.000001 0.000005 20.085200 5.389020 -2.583870 12.994500 -0.242716 -4.980390 87.792700 10.651400 -78.220500 -5.348130 -0.000001 -0.000004 -59.871700 31.835100 -9.218480 -24.328900 0.000322 -0.000009 1.405300 4.163220 -18.683900 -22.291500 -0.000108 -0.000004 11.974100 5.426580 -3.822200 -2.192480 -6.469440 -0.000000 -172.159000 -12.700700 3.978370 39.081100 -0.000007 -0.000012 -0.273299 0.463618 30.519500 40.985400 -0.000006 -0.000013 -1.927170 7.386980 -72.246900 11.754300 -0.000000 0.000003 -0.000083 -0.000875 -16.611300 -2.192510 6.469440 -0.000001 172.231000 24.523600 -173.300000 -39.081100 -0.002282 -0.040193 -0.256254 0.440028 30.535100 -40.985400 0.000008 0.000006 5.109350 12.926300 -75.275800 -11.754300 -0.000006 -0.000006 -0.001069 -0.016382 -17.239400
0.000000 0.000000 0.000000 0.000000 0.000000 -0.000000 -3.870100 90.176700 3.547360 90.588200 -1.324290 11.258900 15.735700 0.000005 -0.000001 77.108900 83.039200 -74.994300 8.984550 -0.406207 -0.000000 5.872950 -3.132810 4.386020 16.377300 -0.000001 -0.000001 25.924300 -12.632300 6.231150 6.456720 -0.000001 -0.000000 13.534900 -16.086100 11.784800 12.994200 -0.242716 4.980390 -88.490000 -3.607170 -67.267100 5.348090 -0.000007 -0.000001 -62.403100 -53.641900 -84.305800 24.328600 0.000019 0.000005 15.902900 8.273850 -63.202400 22.291600 -0.000001 0.000005 19.939500 5.391270 -2.655830 12.994500 -0.242716 -4.980390 87.781400 10.633100 -78.142500 -5.348130 -0.000001 -0.000004 -59.798400 31.924900 -9.156660 -24.328900 0.000322 -0.000009 1.423090 4.259000 -18.508400 -22.291500 -0.000108 -0.000004 11.948800 5.423400 -3.713770 -2.192480 -6.469440 -0.000000 -172.197000 -12.692300 3.988230 39.081100 -0.000007 -0.000012 -0.273799 0.464796 30.501700 40.985400 -0.000006 -0.000013 -1.942000 7.350880 -72.276500 11.754300 -0.000000 0.000003 -0.000082 -0.000868 -16.611000 -2.192510 6.469440 -0.000001 172.253000 24.391900 -173.327000 -39.081100 -0.002282 -0.040193 -0.260154 0.446428 30.547000 -40.985400 0.000008 0.000006 5.070120 12.809500 -75.308800 -11.754300 -0.000006 -0.000006 -0.001148 -0.017492 -17.284500
0.000000 0.000000 0.000000 0.000000 0.000000 -0.000000 -3.875740 90.170400 3.575480 90.592500 -1.358350 11.226800 15.735700 0.000005 -0.000001 76.984600 83.030400 -74.855500 8.984550 -0.406207 -0.000000 5.884550 -3.166110 4.417040 16.377300 -0.000001 -0.000001 25.821600 -12.792300 6.325670 6.456720 -0.000001 -0.000000 13.454300 -16.299600 11.872400 12.994200 -0.242716 4.980390 -88.508800 -3.566130 -67.289500 5.348090 -0.000007 -0.000001 -62.218900 -53.606600 -84.147700 24.328600 0.000019 0.000005 15.862500 8.320280 -63.012000 22.291600 -0.000001 0.000005 20.070100 5.389700 -2.605630 12.994500 -0.242716 -4.980390 87.779400 10.602600 -78.099200 -5.348130 -0.000001 -0.000004 -59.792800 31.867400 -9.049620 -24.328900 0.000322 -0.000009 1.422470 4.307920 -18.305300 -22.291500 -0.000108 -0.000004 11.894300 5.422140 -3.671320 -2.192480 -6.469440 -0.000000 -172.200000 -12.694400 3.975200 39.081100 -0.000007 -0.000012 -0.272784 0.462926 30.509600 40.985400 -0.000006 -0.000013 -1.953170 7.341210 -72.301600 11.754300 -0.000000 0.000003 -0.000082 -0.000869 -16.611000 -2.192510 6.469440 -0.000001 172.325000 24.242100 -173.380000 -39.081100 -0.002282 -0.040193 -0.257817 0.442164 30.564200 -40.985400 0.000008 0.000006 5.037820 12.682600 -75.325000 -11.754300 -0.000006 -0.000006 -0.001017 -0.015652 -17.209700
0.000000 0.000000 0.000000 0.000000 0.000000 -0.000000 -3.873290 90.160900 3.615510 90.613200 -1.411310 11.187100 15.735700 0.000005 -0.000001 76.837300 83.023300 -74.701700 8.984550 -0.406207 -0.000000 5.891260 -3.204110 4.432310 16.377300 -0.000001 -0.000001 25.734400 -12.844700 6.388690 6.456720 -0.000001 -0.000000 13.415000 -16.371900 11.994900 12.994200 -0.242716 4.980390 -88.501900 -3.591790 -67.341100 5.348090 -0.000007 -0.000001 -62.223300 -53.584700 -84.043200 24.328600 0.000019 0.000005 16.004000 8.433910 -62.916600 22.291600 -0.000001 0.000005 19.934300 5.387510 -2.535800 12.994500 -0.242716 -4.980390 87.773100 10.619600 -78.085000 -5.348130 -0.000001 -0.000004 -59.749300 31.736400 -8.939040 -24.328900 0.000322 -0.000009 1.449070 4.445090 -18.088400 -22.291500 -0.000108 -0.000004 11.891500 5.421040 -3.634100 -2.192480 -6.469440 -0.000000 -172.230000 -12.716300 3.971640 39.081100 -0.000007 -0.000012 -0.273215 0.463508 30.517800 40.985400 -0.000006 -0.000013 -1.966230 7.286350 -72.342600 11.754300 -0.000000 0.000003 -0.000081 -0.000857 -16.610600 -2.192510 6.469440 -0.000001 172.335000 24.147800 -173.432000 -39.081100 -0.002282 -0.040193 -0.261068 0.446955 30.604200 -40.985400 0.000008 0.000006 5.025220 12.652700 -75.362900 -11.754300 -0.000006 -0.000006 -0.001084 -0.016594 -17.248000
0.000000 0.000000 0.000000 0.000000 0.000000 -0.000000 -3.868030 90.155200 3.660650 90.592800 -1.520470 11.180600 15.735700 0.000005 -0.000001 76.714100 83.030600 -74.557000 8.984550 -0.406207 -0.000000 5.871570 -3.230690 4.475910 16.377300 -0.000001 -0.000001 25.737700 -12.796700 6.457230 6.456720 -0.000001 -0.000000 13.407000 -16.357500 12.079900 12.994200 -0.242716 4.980390 -88.481400 -3.646250 -67.370700 5.348090 -0.000007 -0.000001 -62.253400 -53.463000 -83.961700 24.328600 0.000019 0.000005 16.003000 8.478740 -62.792700 22.291600 -0.000001 0.000005 19.839900 5.388290 -2.560950 12.994500 -0.242716 -4.980390 87.775300 10.623800 -78.100700 -5.348130 -0.000001 -0.000004 -59.748800 31.637200 -8.747810 -24.328900 0.000322 -0.000009 1.497380 4.641170 -17.915200 -22.291500 -0.000108 -0.000004 11.972900 5.419580 -3.584280 -2.192480 -6.469440 -0.000000 -172.187000 -12.793100 4.016200 39.081100 -0.000007 -0.000012 -0.272995 0.463052 30.522200 40.985400 -0.000006 -0.000013 -1.973710 7.269580 -72.384800 11.754300 -0.000000 0.000003 -0.000083 -0.000874 -16.611200 -2.192510 6.469440 -0.000001 172.373000 24.047100 -173.421000 -39.081100 -0.002282 -0.040193 -0.262712 0.449920 30.593900 -40.985400 0.000008 0.000006 5.013520 12.640200 -75.379700 -11.754300 -0.000006 -0.000006 -0.001044 -0.016032 -17.225100
0.000000 0.000000 0.000000 0.000000 0.000000 -0.000000 -3.852910 90.153200 3.685250 90.609700 -1.680080 11.169300 15.735700 0.000005 -0.000001 76.626100 83.045200 -74.452400 8.984550 -0.406207 -0.000000 5.839070 -3.245680 4.509020 16.377300 -0.000001 -0.000001 25.784300 -12.700300 6.551360 6.456720 -0.000001 -0.000000 13.460000 -16.274700 12.087200 12.994200 -0.242716 4.980390 -88.469300 -3.684630 -67.421500 5.348090 -0.000007 -0.000001 -62.098400 -53.386200 -83.704900 24.328600 0.000019 0.000005 16.003300 8.508390 -62.712300 22.291600 -0.000001 0.000005 19.793100 5.387020 -2.520070 12.994500 -0.242716 -4.980390 87.788700 10.612000 -78.158000 -5.348130 -0.000001 -0.000004 -59.764300 31.546900 -8.561080 -24.328900 0.000322 -0.000009 1.515200 4.749470 -17.728400 -22.291500 -0.000108 -0.000004 11.850900 5.417670 -3.520620 -2.192480 -6.469440 -0.000000 -172.197000 -12.891600 4.080040 39.081100 -0.000007 -0.000012 -0.275083 0.467221 30.488600 40.985400 -0.000006 -0.000013 -1.984340 7.199700 -72.413100 11.754300 -0.000000 0.000003 -0.000081 -0.000855 -16.610500 -2.192510 6.469440 -0.000001 172.404000 23.868500 -173.476000 -39.081100 -0.002282 -0.040193 -0.258494 0.442322 30.620200 -40.985400 0.000008 0.000006 4.999870 12.622100 -75.386200 -11.754300 -0.000006 -0.000006 -0.000913 -0.014166 -17.149300
0.000000 0.000000 0.000000 0.000000 0.000000 -0.000000 -3.838620 90.149000 3.707800 90.598600 -1.849160 11.172100 15.735700 0.000005 -0.000001 76.596900 83.047600 -74.394100 8.984550 -0.406207 -0.000000 5.833720 -3.252030 4.567390 16.377300 -0.000001 -0.000001 25.831400 -12.604400 6.674180 6.456720 -0.000001 -0.000000 13.573200 -16.215500 12.056800 12.994200 -0.242716 4.980390 -88.457500 -3.725210 -67.487700 5.348090 -0.000007 -0.000001 -61.947900 -53.327000 -83.448000 24.328600 0.000019 0.000005 16.086000 8.545210 -62.739100 22.291600 -0.000001 0.000005 19.735500 5.385160 -2.461310 12.994500 -0.242716 -4.980390 87.804600 10.552200 -78.176600 -5.348130 -0.000001 -0.000004 -59.795100 31.527600 -8.471000 -24.328900 0.000322 -0.000009 1.564450 4.965170 -17.524600 -22.291500 -0.000108 -0.000004 11.866700 5.417500 -3.514890 -2.192480 -6.469440 -0.000000 -172.176000 -12.964600 4.121250 39.081100 -0.000007 -0.000012 -0.275366 0.467599 30.494000 40.985400 -0.000006 -0.000013 -2.001190 7.126580 -72.444900 11.754300 -0.000000 0.000003 -0.000083 -0.000879 -16.611400 -2.192510 6.469440 -0.000001 172.418000 23.749700 -173.485000 -39.081100 -0.002282 -0.040193 -0.262227 0.448434 30.631200 -40.985400 0.000008 0.000006 5.009210 12.686100 -75.399100 -11.754300 -0.000006 -0.000006 -0.001009 -0.015536 -17.204900
0.000000 0.000000 0.000000 0.000000 0.000000 -0.000000 -3.824840 90.144600 3.704840 90.583300 -2.028470 11.133100 15.735700 0.000005 -0.000001 76.514300 83.061100 -74.280500 8.984550 -0.406207 -0.000000 5.804150 -3.266380 4.629150 16.377300 -0.000001 -0.000001 25.985500 -12.509300 6.806240 6.456720 -0.000001 -0.000000 13.636000 -16.107800 11.982000 12.994200 -0.242716 4.980390 -88.433100 -3.804830 -67.596600 5.348090 -0.000007 -0.000001 -61.914300 -53.270500 -83.155400 24.328600 0.000019 0.000005 16.106800 8.493100 -62.912200 22.291600 -0.000001 0.000005 19.662200 5.385130 -2.460580 12.994500 -0.242716 -4.980390 87.825900 10.498700 -78.230800 -5.348130 -0.000001 -0.000004 -59.872500 31.403700 -8.360280 -24.328900 0.000322 -0.000009 1.571390 5.023360 -17.406500 -22.291500 -0.000108 -0.000004 11.844100 5.417930 -3.529390 -2.192480 -6.469440 -0.000000 -172.174000 -13.043500 4.101590 39.081100 -0.000007 -0.000012 -0.274368 0.465441 30.519000 40.985400 -0.000006 -0.000013 -2.014020 7.032940 -72.479500 11.754300 -0.000000 0.000003 -0.000080 -0.000849 -16.610300 -2.192510 6.469440 -0.000001 172.489000 23.606800 -173.587000 -39.081100 -0.002282 -0.040193 -0.261234 0.446070 30.669800 -40.985400 0.000008 0.000006 5.007830 12.685500 -75.399000 -11.754300 -0.000006 -0.000006 -0.001048 -0.016090 -17.227500
